<svg width="28" height="388" viewBox="0 0 28 388" fill="none" xmlns="http://www.w3.org/2000/svg">
<path d="M15.6917 13.475L18.0833 11.0833M11.6667 15.1667C11.6667 15.7855 11.9125 16.379 12.3501 16.8166C12.7877 17.2542 13.3812 17.5 14 17.5C14.6188 17.5 15.2123 17.2542 15.6499 16.8166C16.0875 16.379 16.3333 15.7855 16.3333 15.1667C16.3333 14.5478 16.0875 13.9543 15.6499 13.5168C15.2123 13.0792 14.6188 12.8333 14 12.8333C13.3812 12.8333 12.7877 13.0792 12.3501 13.5168C11.9125 13.9543 11.6667 14.5478 11.6667 15.1667Z" stroke="white" stroke-width="2" stroke-linecap="round" stroke-linejoin="round"/>
<path d="M7.46667 23.3333C5.76117 21.9778 4.51956 20.1253 3.91391 18.0325C3.30825 15.9398 3.36854 13.7105 4.08642 11.6536C4.8043 9.59669 6.14422 7.81399 7.92048 6.55258C9.69675 5.29117 11.8214 4.61351 14 4.61351C16.1786 4.61351 18.3032 5.29117 20.0795 6.55258C21.8558 7.81399 23.1957 9.59669 23.9136 11.6536C24.6315 13.7105 24.6917 15.9398 24.0861 18.0325C23.4804 20.1253 22.2388 21.9778 20.5333 23.3333H7.46667Z" stroke="white" stroke-width="2" stroke-linecap="round" stroke-linejoin="round"/>
<path d="M5 68.75C5 66.982 5 66.098 5.55 65.55C6.097 65 6.981 65 8.75 65C10.519 65 11.402 65 11.95 65.55C12.5 66.098 12.5 66.982 12.5 68.75C12.5 70.518 12.5 71.402 11.95 71.95C11.402 72.5 10.518 72.5 8.75 72.5C6.982 72.5 6.098 72.5 5.55 71.95C5 71.403 5 70.519 5 68.75ZM5 79.257C5 77.489 5 76.605 5.55 76.057C6.098 75.507 6.982 75.507 8.75 75.507C10.518 75.507 11.402 75.507 11.95 76.057C12.5 76.605 12.5 77.489 12.5 79.257C12.5 81.025 12.5 81.909 11.95 82.457C11.402 83.007 10.518 83.007 8.75 83.007C6.982 83.007 6.098 83.007 5.55 82.457C5 81.91 5 81.025 5 79.257ZM15.5 68.75C15.5 66.982 15.5 66.098 16.05 65.55C16.598 65 17.482 65 19.25 65C21.018 65 21.902 65 22.45 65.55C23 66.098 23 66.982 23 68.75C23 70.518 23 71.402 22.45 71.95C21.902 72.5 21.018 72.5 19.25 72.5C17.482 72.5 16.598 72.5 16.05 71.95C15.5 71.402 15.5 70.518 15.5 68.75ZM15.5 79.257C15.5 77.489 15.5 76.605 16.05 76.057C16.598 75.507 17.482 75.507 19.25 75.507C21.018 75.507 21.902 75.507 22.45 76.057C23 76.605 23 77.489 23 79.257C23 81.025 23 81.909 22.45 82.457C21.902 83.007 21.018 83.007 19.25 83.007C17.482 83.007 16.598 83.007 16.05 82.457C15.5 81.909 15.5 81.025 15.5 79.257Z" stroke="white" stroke-width="1.5" stroke-linecap="round" stroke-linejoin="round"/>
<path d="M25.2605 126.969L20.0105 121.719H18.95L14.981 125.688V123.748L14.231 122.998H5.2295L4.4795 123.748V141.748L5.2295 142.498H23.2295L23.9795 141.748V132.748L23.2295 131.998H21.29L25.259 128.029L25.2605 126.969ZM5.9795 124.5H13.4795V132H5.9795V124.5ZM5.9795 133.5H13.4795V141H5.9795V133.5ZM22.4795 141H14.9795V133.5H22.4795V141ZM14.9795 132V129.31L17.669 132H14.9795ZM19.4795 131.689L15.29 127.5L19.4795 123.31L23.669 127.5L19.4795 131.689Z" fill="white" fill-opacity="0.65"/>
<path d="M23 199L18.657 194.657L23 199ZM18.657 194.657C19.3999 193.914 19.9892 193.032 20.3912 192.062C20.7933 191.091 21.0002 190.051 21.0002 189C21.0002 187.949 20.7933 186.909 20.3912 185.938C19.9892 184.968 19.3999 184.086 18.657 183.343C17.9141 182.6 17.0322 182.011 16.0615 181.609C15.0909 181.207 14.0506 181 13 181C11.9494 181 10.9091 181.207 9.93845 181.609C8.96782 182.011 8.08589 182.6 7.343 183.343C5.84267 184.843 4.99979 186.878 4.99979 189C4.99979 191.122 5.84267 193.157 7.343 194.657C8.84333 196.157 10.8782 197 13 197C15.1218 197 17.1567 196.157 18.657 194.657Z" fill="#D9D9D9"/>
<path d="M23 199L18.657 194.657M18.657 194.657C19.3999 193.914 19.9892 193.032 20.3912 192.062C20.7933 191.091 21.0002 190.051 21.0002 189C21.0002 187.949 20.7933 186.909 20.3912 185.938C19.9892 184.968 19.3999 184.086 18.657 183.343C17.9141 182.6 17.0322 182.011 16.0615 181.609C15.0909 181.207 14.0506 181 13 181C11.9494 181 10.9091 181.207 9.93845 181.609C8.96782 182.011 8.08589 182.6 7.343 183.343C5.84267 184.843 4.99979 186.878 4.99979 189C4.99979 191.122 5.84267 193.157 7.343 194.657C8.84333 196.157 10.8782 197 13 197C15.1218 197 17.1567 196.157 18.657 194.657Z" stroke="white" stroke-width="1.5" stroke-linecap="round" stroke-linejoin="round"/>
<path d="M18.6667 247.667C19.9553 247.667 21 246.622 21 245.333C21 244.045 19.9553 243 18.6667 243C17.378 243 16.3333 244.045 16.3333 245.333C16.3333 246.622 17.378 247.667 18.6667 247.667Z" stroke="white" stroke-opacity="0.65" stroke-width="1.5"/>
<path d="M2.33333 250.583L4.37733 248.795C4.88966 248.347 5.55304 248.11 6.23318 248.133C6.91332 248.156 7.55941 248.436 8.04067 248.917L13.0457 253.922C13.4341 254.311 13.947 254.55 14.4941 254.597C15.0413 254.644 15.5876 254.497 16.037 254.181L16.3858 253.936C17.034 253.481 17.8175 253.259 18.6081 253.307C19.3988 253.355 20.1499 253.669 20.7387 254.199L24.5 257.583" stroke="white" stroke-opacity="0.65" stroke-width="1.5" stroke-linecap="round"/>
<path d="M25.6667 250C25.6667 255.5 25.6667 258.25 23.9575 259.958C22.2507 261.667 19.4997 261.667 14 261.667C8.50033 261.667 5.7505 261.667 4.04133 259.958C2.33333 258.251 2.33333 255.5 2.33333 250C2.33333 244.5 2.33333 241.751 4.04133 240.041C5.75167 238.333 8.50033 238.333 14 238.333C19.4997 238.333 22.2495 238.333 23.9575 240.041C25.0938 241.178 25.4742 242.775 25.6025 245.333" stroke="white" stroke-opacity="0.65" stroke-width="1.5" stroke-linecap="round"/>
<path d="M12.3083 319.233L18.3458 312H13.6792L14.525 305.379L9.12917 313.167H13.1833L12.3083 319.233ZM11.8463 314.333H8.36383C8.04728 314.333 7.81783 314.195 7.6755 313.919C7.53317 313.643 7.55417 313.378 7.7385 313.125L14.3057 303.61C14.4247 303.443 14.5724 303.332 14.749 303.278C14.9256 303.224 15.1122 303.232 15.309 303.304C15.5058 303.375 15.6477 303.493 15.7348 303.658C15.8219 303.823 15.8538 304.003 15.8305 304.198L15.0103 310.833H19.194C19.5207 310.833 19.7521 310.982 19.8882 311.28C20.0251 311.578 19.9881 311.854 19.7773 312.108L12.4693 320.862C12.3449 321.01 12.1948 321.104 12.019 321.145C11.8424 321.186 11.6682 321.168 11.4963 321.091C11.3244 321.014 11.193 320.899 11.102 320.744C11.0118 320.589 10.9787 320.414 11.0028 320.219L11.8463 314.333Z" fill="white" fill-opacity="0.65"/>
<g clip-path="url(#clip0_1_196)">
<g filter="url(#filter0_d_1_196)">
<path opacity="0.5" d="M14 369.333V374L16.9167 376.917" stroke="white" stroke-opacity="0.65" stroke-width="1.5" stroke-linecap="round" stroke-linejoin="round"/>
<path d="M5.061 368.016L4.186 368.02C4.18692 368.25 4.27887 368.471 4.44186 368.634C4.60485 368.798 4.82568 368.89 5.05633 368.891L5.061 368.016ZM8.02667 368.905C8.14157 368.906 8.25546 368.884 8.36182 368.84C8.46819 368.797 8.56495 368.733 8.64658 368.652C8.72821 368.571 8.79311 368.475 8.83758 368.369C8.88205 368.263 8.90521 368.149 8.90575 368.034C8.90629 367.919 8.88418 367.805 8.84071 367.699C8.79723 367.593 8.73323 367.496 8.65236 367.414C8.57148 367.333 8.47532 367.268 8.36937 367.223C8.26341 367.179 8.14974 367.156 8.03483 367.155L8.02667 368.905ZM5.92083 365.041C5.92022 364.926 5.89698 364.813 5.85244 364.707C5.8079 364.601 5.74294 364.505 5.66125 364.424C5.57957 364.343 5.48276 364.279 5.37637 364.236C5.26997 364.192 5.15607 364.17 5.04117 364.171C4.92626 364.171 4.8126 364.195 4.70667 364.239C4.60075 364.284 4.50463 364.349 4.42381 364.43C4.343 364.512 4.27906 364.609 4.23565 364.715C4.19225 364.822 4.17022 364.936 4.17083 365.051L5.92083 365.041ZM4.46483 372.583C4.4816 372.468 4.47554 372.352 4.44701 372.24C4.41848 372.128 4.36805 372.022 4.29862 371.93C4.22918 371.838 4.14214 371.76 4.04249 371.701C3.94285 371.643 3.8326 371.604 3.71809 371.589C3.60359 371.573 3.4871 371.58 3.37536 371.61C3.26363 371.639 3.15885 371.691 3.06709 371.761C2.97532 371.831 2.89839 371.919 2.84073 372.019C2.78308 372.119 2.74584 372.23 2.73117 372.345L4.46483 372.583ZM22.0057 365.994C17.549 361.538 10.3472 361.491 5.91967 365.92L7.15633 367.156C10.8897 363.424 16.9832 363.446 20.769 367.231L22.0057 365.994ZM5.99433 382.006C10.451 386.462 17.6528 386.509 22.0803 382.08L20.8437 380.844C17.1103 384.576 11.0168 384.554 7.231 380.769L5.99433 382.006ZM22.0803 382.08C26.5078 377.653 26.4623 370.451 22.0057 365.994L20.769 367.231C24.5537 371.017 24.5758 377.11 20.8437 380.844L22.0803 382.08ZM5.91967 365.92L4.4415 367.397L5.67933 368.633L7.15633 367.156L5.91967 365.92ZM5.05633 368.891L8.02667 368.905L8.03483 367.155L5.06567 367.141L5.05633 368.891ZM5.936 368.012L5.92083 365.041L4.17083 365.051L4.186 368.02L5.936 368.012ZM2.73 372.343C2.49011 374.096 2.65994 375.881 3.22613 377.557C3.79233 379.234 4.73947 380.756 5.99317 382.005L7.22983 380.768C6.16711 379.71 5.36421 378.42 4.88423 377C4.40426 375.579 4.2603 374.067 4.46367 372.581L2.73 372.343Z" fill="white" fill-opacity="0.65"/>
</g>
</g>
<defs>
<filter id="filter0_d_1_196" x="-1.37568" y="362.625" width="30.7504" height="30.7503" filterUnits="userSpaceOnUse" color-interpolation-filters="sRGB">
<feFlood flood-opacity="0" result="BackgroundImageFix"/>
<feColorMatrix in="SourceAlpha" type="matrix" values="0 0 0 0 0 0 0 0 0 0 0 0 0 0 0 0 0 0 127 0" result="hardAlpha"/>
<feOffset dy="4"/>
<feGaussianBlur stdDeviation="2"/>
<feComposite in2="hardAlpha" operator="out"/>
<feColorMatrix type="matrix" values="0 0 0 0 0 0 0 0 0 0 0 0 0 0 0 0 0 0 0.25 0"/>
<feBlend mode="normal" in2="BackgroundImageFix" result="effect1_dropShadow_1_196"/>
<feBlend mode="normal" in="SourceGraphic" in2="effect1_dropShadow_1_196" result="shape"/>
</filter>
<clipPath id="clip0_1_196">
<rect width="28" height="28" fill="white" transform="translate(0 360)"/>
</clipPath>
</defs>
</svg>
