<svg width="26" height="142" viewBox="0 0 26 142" fill="none" xmlns="http://www.w3.org/2000/svg">
<g clip-path="url(#clip0_1_230)">
<path d="M13.0722 7.94446C10.2556 7.94446 8.01667 10.1833 8.01667 13C8.01667 15.8167 10.2556 18.0556 13.0722 18.0556C15.8889 18.0556 18.1278 15.8167 18.1278 13C18.1278 10.1833 15.8889 7.94446 13.0722 7.94446ZM13.0722 16.6111C11.05 16.6111 9.46111 15.0222 9.46111 13C9.46111 10.9778 11.05 9.3889 13.0722 9.3889C15.0944 9.3889 16.6833 10.9778 16.6833 13C16.6833 15.0222 15.0944 16.6111 13.0722 16.6111Z" fill="#F2F2F2"/>
<path d="M23.6889 10.6167L21.6667 9.96668L21.2333 8.88335L22.2444 7.00557C22.4611 6.57224 22.3889 5.99446 22.0278 5.63335L20.2944 3.90001C19.9333 3.5389 19.3556 3.46668 18.9222 3.68335L17.0444 4.69446L15.9611 4.26112L15.3111 2.2389C15.1667 1.80557 14.7333 1.44446 14.2278 1.44446H11.7722C11.2667 1.44446 10.8333 1.80557 10.7611 2.31112L10.1111 4.33335C9.67778 4.40557 9.31667 4.55001 8.95556 4.76668L7.07778 3.75557C6.64444 3.5389 6.06667 3.61112 5.70556 3.97224L3.97222 5.70557C3.61111 6.06668 3.53889 6.64446 3.75556 7.07779L4.69444 8.88335C4.55 9.24446 4.40556 9.67779 4.26111 10.0389L2.23889 10.6889C1.80556 10.8333 1.44444 11.2667 1.44444 11.7722V14.2278C1.44444 14.7333 1.80556 15.1667 2.31111 15.3111L4.33333 15.9611L4.76667 17.0445L3.75556 18.9222C3.53889 19.3556 3.61111 19.9333 3.97222 20.2945L5.70556 22.0278C6.06667 22.3889 6.64444 22.4611 7.07778 22.2445L8.95556 21.2333L10.0389 21.6667L10.6889 23.7611C10.8333 24.1945 11.2667 24.5556 11.7722 24.5556H14.2278C14.7333 24.5556 15.1667 24.1945 15.3111 23.7611L15.9611 21.6667L17.0444 21.2333L18.9222 22.2445C19.3556 22.4611 19.9333 22.3889 20.2944 22.0278L22.0278 20.2945C22.3889 19.9333 22.4611 19.3556 22.2444 18.9222L21.2333 17.0445L21.6667 15.9611L23.7611 15.3111C24.1944 15.1667 24.5556 14.7333 24.5556 14.2278V11.7722C24.5556 11.2667 24.1944 10.7611 23.6889 10.6167ZM23.1111 14.0111L20.5111 14.8056L20.4389 15.1667L19.7889 16.6833L19.5722 17.0445L20.8722 19.4278L19.4278 20.8722L17.0444 19.5722L16.6833 19.7889C16.1778 20.0778 15.6722 20.2945 15.1667 20.4389L14.8056 20.5111L14.0111 23.1111H11.9889L11.1944 20.5111L10.8333 20.4389L9.31667 19.7889L8.95556 19.5722L6.57222 20.8722L5.12778 19.4278L6.42778 17.0445L6.21111 16.6833C5.92222 16.1778 5.70556 15.6722 5.56111 15.1667L5.48889 14.8056L2.88889 14.0111V11.9889L5.34444 11.2667L5.48889 10.9056C5.63333 10.3278 5.85 9.82224 6.13889 9.31668L6.35556 8.95557L5.12778 6.57224L6.57222 5.12779L8.88333 6.42779L9.24444 6.21112C9.75 5.92224 10.2556 5.70557 10.8333 5.56112L11.1944 5.41668L11.9889 2.8889H14.0111L14.8056 5.41668L15.1667 5.56112C15.6722 5.70557 16.1778 5.92224 16.6833 6.21112L17.0444 6.42779L19.4278 5.12779L20.8722 6.57224L19.5722 8.95557L19.7889 9.31668C20.0778 9.82224 20.2944 10.3278 20.4389 10.8333L20.5111 11.1945L23.1111 11.9889V14.0111Z" fill="#F2F2F2"/>
</g>
<path d="M13 60.1667C18.9832 60.1667 23.8333 65.0168 23.8333 71C23.8333 76.9833 18.9832 81.8334 13 81.8334C7.01675 81.8334 2.16667 76.9833 2.16667 71C2.16667 65.0168 7.01675 60.1667 13 60.1667ZM13 62.3334C10.7015 62.3334 8.49706 63.2464 6.87174 64.8718C5.24643 66.4971 4.33333 68.7015 4.33333 71C4.33333 73.2986 5.24643 75.503 6.87174 77.1283C8.49706 78.7536 10.7015 79.6667 13 79.6667C15.2985 79.6667 17.5029 78.7536 19.1283 77.1283C20.7536 75.503 21.6667 73.2986 21.6667 71C21.6667 68.7015 20.7536 66.4971 19.1283 64.8718C17.5029 63.2464 15.2985 62.3334 13 62.3334ZM13 75.3334C13.2873 75.3334 13.5629 75.4475 13.766 75.6507C13.9692 75.8538 14.0833 76.1294 14.0833 76.4167C14.0833 76.704 13.9692 76.9796 13.766 77.1827C13.5629 77.3859 13.2873 77.5 13 77.5C12.7127 77.5 12.4371 77.3859 12.234 77.1827C12.0308 76.9796 11.9167 76.704 11.9167 76.4167C11.9167 76.1294 12.0308 75.8538 12.234 75.6507C12.4371 75.4475 12.7127 75.3334 13 75.3334ZM13 65.0417C13.9125 65.0417 14.7965 65.3595 15.5001 65.9404C16.2037 66.5214 16.6831 67.3292 16.8559 68.2251C17.0287 69.1211 16.8841 70.0493 16.4469 70.8502C16.0098 71.6511 15.3074 72.2748 14.4603 72.6142C14.3349 72.6603 14.2218 72.7348 14.1299 72.8319C14.0822 72.8861 14.0747 72.9554 14.0757 73.0269L14.0833 73.1667C14.083 73.4428 13.9773 73.7084 13.7877 73.9092C13.5982 74.1099 13.3391 74.2308 13.0635 74.247C12.7878 74.2631 12.5164 74.1735 12.3047 73.9962C12.0929 73.819 11.9569 73.5676 11.9242 73.2934L11.9167 73.1667V72.8959C11.9167 71.6468 12.9242 70.8971 13.6543 70.6035C13.9515 70.4849 14.2107 70.2875 14.4042 70.0326C14.5977 69.7777 14.718 69.4749 14.7524 69.1568C14.7868 68.8386 14.7338 68.5172 14.5992 68.2268C14.4647 67.9365 14.2536 67.6883 13.9886 67.509C13.7236 67.3296 13.4148 67.2257 13.0952 67.2086C12.7757 67.1915 12.4575 67.2618 12.1749 67.4119C11.8923 67.562 11.6559 67.7862 11.4911 68.0605C11.3263 68.3348 11.2394 68.6488 11.2396 68.9688C11.2396 69.2561 11.1254 69.5316 10.9223 69.7348C10.7191 69.938 10.4436 70.0521 10.1562 70.0521C9.86893 70.0521 9.59338 69.938 9.39022 69.7348C9.18705 69.5316 9.07292 69.2561 9.07292 68.9688C9.07292 67.9272 9.48666 66.9284 10.2231 66.1919C10.9596 65.4554 11.9585 65.0417 13 65.0417Z" fill="#F2F2F2"/>
<path d="M13 118.167C7.01675 118.167 2.16667 123.017 2.16667 129C2.16667 134.983 7.01675 139.833 13 139.833C18.9832 139.833 23.8333 134.983 23.8333 129C23.8333 123.017 18.9832 118.167 13 118.167Z" stroke="#F2F2F2" stroke-width="1.5" stroke-linecap="round" stroke-linejoin="round"/>
<path d="M4.62692 135.875C4.62692 135.875 7.04167 132.792 13 132.792C18.9583 132.792 21.3742 135.875 21.3742 135.875M13 129C13.862 129 14.6886 128.658 15.2981 128.048C15.9076 127.439 16.25 126.612 16.25 125.75C16.25 124.888 15.9076 124.061 15.2981 123.452C14.6886 122.842 13.862 122.5 13 122.5C12.138 122.5 11.3114 122.842 10.7019 123.452C10.0924 124.061 9.75 124.888 9.75 125.75C9.75 126.612 10.0924 127.439 10.7019 128.048C11.3114 128.658 12.138 129 13 129Z" stroke="#F2F2F2" stroke-width="1.5" stroke-linecap="round" stroke-linejoin="round"/>
<defs>
<clipPath id="clip0_1_230">
<rect width="26" height="26" fill="white"/>
</clipPath>
</defs>
</svg>
