<svg width="44" height="44" viewBox="0 0 44 44" fill="none" xmlns="http://www.w3.org/2000/svg">
<path d="M6.875 12.8333C6.875 12.4687 7.01987 12.1189 7.27773 11.8611C7.53559 11.6032 7.88533 11.4583 8.25 11.4583H35.75C36.1147 11.4583 36.4644 11.6032 36.7223 11.8611C36.9801 12.1189 37.125 12.4687 37.125 12.8333C37.125 13.198 36.9801 13.5477 36.7223 13.8056C36.4644 14.0635 36.1147 14.2083 35.75 14.2083H8.25C7.88533 14.2083 7.53559 14.0635 7.27773 13.8056C7.01987 13.5477 6.875 13.198 6.875 12.8333ZM11.4583 22C11.4583 21.6353 11.6032 21.2856 11.8611 21.0277C12.1189 20.7699 12.4687 20.625 12.8333 20.625H31.1667C31.5313 20.625 31.8811 20.7699 32.1389 21.0277C32.3968 21.2856 32.5417 21.6353 32.5417 22C32.5417 22.3647 32.3968 22.7144 32.1389 22.9723C31.8811 23.2301 31.5313 23.375 31.1667 23.375H12.8333C12.4687 23.375 12.1189 23.2301 11.8611 22.9723C11.6032 22.7144 11.4583 22.3647 11.4583 22ZM16.9583 31.1667C16.9583 30.802 17.1032 30.4523 17.3611 30.1944C17.6189 29.9365 17.9687 29.7917 18.3333 29.7917H25.6667C26.0313 29.7917 26.3811 29.9365 26.6389 30.1944C26.8968 30.4523 27.0417 30.802 27.0417 31.1667C27.0417 31.5313 26.8968 31.8811 26.6389 32.1389C26.3811 32.3968 26.0313 32.5417 25.6667 32.5417H18.3333C17.9687 32.5417 17.6189 32.3968 17.3611 32.1389C17.1032 31.8811 16.9583 31.5313 16.9583 31.1667Z" fill="black"/>
</svg>
