<svg width="20" height="20" viewBox="0 0 20 20" fill="none" xmlns="http://www.w3.org/2000/svg">
<path d="M9.99999 3.125C9.99999 2.95924 9.93414 2.80027 9.81693 2.68306C9.69972 2.56585 9.54075 2.5 9.37499 2.5C9.20923 2.5 9.05026 2.56585 8.93305 2.68306C8.81584 2.80027 8.74999 2.95924 8.74999 3.125V15.3625L3.56249 10.175C3.44461 10.0612 3.28674 9.99815 3.12287 9.99958C2.95899 10.001 2.80223 10.0667 2.68635 10.1826C2.57047 10.2985 2.50474 10.4553 2.50332 10.6191C2.5019 10.783 2.56489 10.9409 2.67874 11.0588L8.92874 17.3088C9.04595 17.4259 9.20489 17.4917 9.37062 17.4917C9.53634 17.4917 9.69529 17.4259 9.81249 17.3088L16.0625 11.0588C16.1763 10.9409 16.2393 10.783 16.2379 10.6191C16.2365 10.4553 16.1708 10.2985 16.0549 10.1826C15.939 10.0667 15.7822 10.001 15.6184 9.99958C15.4545 9.99815 15.2966 10.0612 15.1787 10.175L9.99124 15.3625V3.125H9.99999Z" fill="black"/>
</svg>
