<svg width="51" height="51" viewBox="0 0 51 51" fill="none" xmlns="http://www.w3.org/2000/svg">
<path d="M34 6.375V14.875M17 6.375V14.875M8.5 23.375H42.5M23.375 31.875H25.5V38.25M8.5 14.875C8.5 13.7478 8.94777 12.6668 9.7448 11.8698C10.5418 11.0728 11.6228 10.625 12.75 10.625H38.25C39.3772 10.625 40.4582 11.0728 41.2552 11.8698C42.0522 12.6668 42.5 13.7478 42.5 14.875V40.375C42.5 41.5022 42.0522 42.5832 41.2552 43.3802C40.4582 44.1772 39.3772 44.625 38.25 44.625H12.75C11.6228 44.625 10.5418 44.1772 9.7448 43.3802C8.94777 42.5832 8.5 41.5022 8.5 40.375V14.875Z" stroke="black" stroke-width="2" stroke-linecap="round" stroke-linejoin="round"/>
</svg>
