<svg width="22" height="22" viewBox="0 0 22 22" fill="none" xmlns="http://www.w3.org/2000/svg">
<path d="M5.13336 11.7333H4.40002V10.2667H5.13336C5.32785 10.2667 5.51438 10.3439 5.6519 10.4815C5.78943 10.619 5.86669 10.8055 5.86669 11C5.86669 11.1945 5.78943 11.381 5.6519 11.5185C5.51438 11.6561 5.32785 11.7333 5.13336 11.7333ZM10.2667 14.6667V10.2667H11C11.1945 10.2667 11.381 10.3439 11.5186 10.4815C11.6561 10.619 11.7334 10.8055 11.7334 11V13.9333C11.7334 14.1278 11.6561 14.3143 11.5186 14.4519C11.381 14.5894 11.1945 14.6667 11 14.6667H10.2667Z" fill="#FF0000"/>
<path fill-rule="evenodd" clip-rule="evenodd" d="M1.46667 2.2C1.46667 1.61652 1.69846 1.05695 2.11104 0.644365C2.52362 0.231785 3.0832 0 3.66667 0L15.7036 0L20.5333 4.82973V19.8C20.5333 20.3835 20.3016 20.9431 19.889 21.3556C19.4764 21.7682 18.9168 22 18.3333 22H3.66667C3.0832 22 2.52362 21.7682 2.11104 21.3556C1.69846 20.9431 1.46667 20.3835 1.46667 19.8V2.2ZM5.13334 8.8H2.93334V16.1333H4.40001V13.2H5.13334C5.71682 13.2 6.2764 12.9682 6.68898 12.5556C7.10156 12.1431 7.33334 11.5835 7.33334 11C7.33334 10.4165 7.10156 9.85695 6.68898 9.44436C6.2764 9.03179 5.71682 8.8 5.13334 8.8ZM11 8.8H8.80001V16.1333H11C11.5835 16.1333 12.1431 15.9015 12.5556 15.489C12.9682 15.0764 13.2 14.5168 13.2 13.9333V11C13.2 10.4165 12.9682 9.85695 12.5556 9.44436C12.1431 9.03179 11.5835 8.8 11 8.8ZM14.6667 16.1333V8.8H19.0667V10.2667H16.1333V11.7333H17.6V13.2H16.1333V16.1333H14.6667Z" fill="#FF0000"/>
</svg>
